<svg width="15" height="13" viewBox="0 0 15 13" fill="none" xmlns="http://www.w3.org/2000/svg">
<path d="M3.4375 12.125C2.95 12.125 2.525 11.8438 2.31875 11.4375L0.6875 5.52505L0.625 5.25005C0.625 5.08429 0.690848 4.92532 0.808058 4.80811C0.925268 4.6909 1.08424 4.62505 1.25 4.62505H4.1125L6.9875 0.518798C7.04512 0.43497 7.12239 0.366523 7.21256 0.319436C7.30273 0.272348 7.40306 0.248052 7.50478 0.248669C7.6065 0.249285 7.70653 0.274796 7.79612 0.322972C7.88571 0.371149 7.96215 0.440527 8.01875 0.525048L10.8875 4.62505H13.75C13.9158 4.62505 14.0747 4.6909 14.1919 4.80811C14.3092 4.92532 14.375 5.08429 14.375 5.25005L14.35 5.4313L12.6813 11.4375C12.475 11.8438 12.05 12.125 11.5625 12.125H3.4375ZM7.5 1.96255L5.625 4.62505H9.375L7.5 1.96255ZM7.5 7.12505C7.16848 7.12505 6.85054 7.25674 6.61612 7.49116C6.3817 7.72558 6.25 8.04353 6.25 8.37505C6.25 8.70657 6.3817 9.02451 6.61612 9.25893C6.85054 9.49335 7.16848 9.62505 7.5 9.62505C7.83152 9.62505 8.14946 9.49335 8.38388 9.25893C8.6183 9.02451 8.75 8.70657 8.75 8.37505C8.75 8.04353 8.6183 7.72558 8.38388 7.49116C8.14946 7.25674 7.83152 7.12505 7.5 7.12505Z" fill="white"/>
</svg>
