<svg width="15" height="15" viewBox="0 0 15 15" fill="none" xmlns="http://www.w3.org/2000/svg">
<g id="Icons" clip-path="url(#clip0_26_508)">
<path id="Vector" d="M7.5 0.9375C3.87598 0.9375 0.9375 3.87598 0.9375 7.5C0.9375 11.124 3.87598 14.0625 7.5 14.0625C11.124 14.0625 14.0625 11.124 14.0625 7.5C14.0625 3.87598 11.124 0.9375 7.5 0.9375ZM7.5 12.9492C4.49121 12.9492 2.05078 10.5088 2.05078 7.5C2.05078 4.49121 4.49121 2.05078 7.5 2.05078C10.5088 2.05078 12.9492 4.49121 12.9492 7.5C12.9492 10.5088 10.5088 12.9492 7.5 12.9492ZM8.19873 7.16016L7.82666 7.07373V5.10645C8.3833 5.18262 8.72754 5.53125 8.78613 5.95898C8.79346 6.01758 8.84326 6.06006 8.90186 6.06006H9.55957C9.62842 6.06006 9.68262 6 9.67676 5.93115C9.5874 5.01855 8.83594 4.43262 7.83252 4.33154V3.85254C7.83252 3.78809 7.77979 3.73535 7.71533 3.73535H7.30371C7.23926 3.73535 7.18652 3.78809 7.18652 3.85254V4.33594C6.14941 4.43701 5.33789 5.00977 5.33789 6.0791C5.33789 7.06934 6.06738 7.54688 6.8335 7.72998L7.19531 7.82227V9.9126C6.54785 9.82617 6.18457 9.48047 6.10986 9.01465C6.10107 8.95898 6.05127 8.91797 5.99414 8.91797H5.31738C5.24854 8.91797 5.19434 8.97656 5.2002 9.04541C5.26611 9.85107 5.87695 10.5923 7.18066 10.6875V11.1475C7.18066 11.2119 7.2334 11.2646 7.29785 11.2646H7.71387C7.77832 11.2646 7.83105 11.2119 7.83105 11.146L7.82813 10.6816C8.9751 10.5806 9.79541 9.9668 9.79541 8.86523C9.79395 7.84863 9.14795 7.39453 8.19873 7.16016ZM7.19385 6.92285C7.11182 6.89941 7.04297 6.87744 6.97412 6.84961C6.479 6.6709 6.24902 6.38232 6.24902 6.01025C6.24902 5.47852 6.65186 5.17529 7.19385 5.10645V6.92285ZM7.82666 9.91699V7.9585C7.87207 7.97168 7.91309 7.98193 7.95557 7.99072C8.64844 8.20166 8.88135 8.49463 8.88135 8.94434C8.88135 9.51709 8.45068 9.86133 7.82666 9.91699Z" fill="#212121"/>
</g>
<defs>
<clipPath id="clip0_26_508">
<rect width="15" height="15" fill="white"/>
</clipPath>
</defs>
</svg>
