<svg width="15" height="15" viewBox="0 0 15 15" fill="none" xmlns="http://www.w3.org/2000/svg">
<g id="Icons">
<path id="Vector" d="M7.5 4.0625C7.9144 4.0625 8.31183 4.22712 8.60485 4.52015C8.89788 4.81317 9.0625 5.2106 9.0625 5.625C9.0625 5.83019 9.02208 6.03337 8.94356 6.22294C8.86504 6.41251 8.74995 6.58476 8.60485 6.72985C8.45976 6.87495 8.28751 6.99004 8.09794 7.06856C7.90837 7.14708 7.70519 7.1875 7.5 7.1875C7.0856 7.1875 6.68817 7.02288 6.39515 6.72985C6.10212 6.43683 5.9375 6.0394 5.9375 5.625C5.9375 5.2106 6.10212 4.81317 6.39515 4.52015C6.68817 4.22712 7.0856 4.0625 7.5 4.0625ZM7.5 1.25C8.66032 1.25 9.77312 1.71094 10.5936 2.53141C11.4141 3.35188 11.875 4.46468 11.875 5.625C11.875 8.90625 7.5 13.75 7.5 13.75C7.5 13.75 3.125 8.90625 3.125 5.625C3.125 4.46468 3.58594 3.35188 4.40641 2.53141C5.22688 1.71094 6.33968 1.25 7.5 1.25ZM7.5 2.5C6.6712 2.5 5.87634 2.82924 5.29029 3.41529C4.70424 4.00134 4.375 4.7962 4.375 5.625C4.375 6.25 4.375 7.5 7.5 11.6937C10.625 7.5 10.625 6.25 10.625 5.625C10.625 4.7962 10.2958 4.00134 9.70971 3.41529C9.12366 2.82924 8.3288 2.5 7.5 2.5Z" fill="#212121"/>
</g>
</svg>
