<svg width="15" height="15" viewBox="0 0 15 15" fill="none" xmlns="http://www.w3.org/2000/svg">
<g id="Icons">
<path id="Vector" d="M2.65625 2.5C2.28329 2.5 1.9256 2.64816 1.66188 2.91188C1.39816 3.1756 1.25 3.53329 1.25 3.90625V5.46875C1.25 5.84171 1.39816 6.1994 1.66188 6.46312C1.9256 6.72684 2.28329 6.875 2.65625 6.875H4.21875C4.59171 6.875 4.9494 6.72684 5.21312 6.46312C5.47684 6.1994 5.625 5.84171 5.625 5.46875V3.90625C5.625 3.53329 5.47684 3.1756 5.21312 2.91188C4.9494 2.64816 4.59171 2.5 4.21875 2.5H2.65625ZM2.1875 3.90625C2.1875 3.78193 2.23689 3.6627 2.32479 3.57479C2.4127 3.48689 2.53193 3.4375 2.65625 3.4375H4.21875C4.34307 3.4375 4.4623 3.48689 4.55021 3.57479C4.63811 3.6627 4.6875 3.78193 4.6875 3.90625V5.46875C4.6875 5.59307 4.63811 5.7123 4.55021 5.80021C4.4623 5.88811 4.34307 5.9375 4.21875 5.9375H2.65625C2.53193 5.9375 2.4127 5.88811 2.32479 5.80021C2.23689 5.7123 2.1875 5.59307 2.1875 5.46875V3.90625ZM7.03125 3.125C6.90693 3.125 6.7877 3.17439 6.69979 3.26229C6.61189 3.3502 6.5625 3.46943 6.5625 3.59375C6.5625 3.71807 6.61189 3.8373 6.69979 3.92521C6.7877 4.01311 6.90693 4.0625 7.03125 4.0625H13.2812C13.4056 4.0625 13.5248 4.01311 13.6127 3.92521C13.7006 3.8373 13.75 3.71807 13.75 3.59375C13.75 3.46943 13.7006 3.3502 13.6127 3.26229C13.5248 3.17439 13.4056 3.125 13.2812 3.125H7.03125ZM7.03125 5C6.90693 5 6.7877 5.04939 6.69979 5.13729C6.61189 5.2252 6.5625 5.34443 6.5625 5.46875C6.5625 5.59307 6.61189 5.7123 6.69979 5.80021C6.7877 5.88811 6.90693 5.9375 7.03125 5.9375H11.4062C11.5306 5.9375 11.6498 5.88811 11.7377 5.80021C11.8256 5.7123 11.875 5.59307 11.875 5.46875C11.875 5.34443 11.8256 5.2252 11.7377 5.13729C11.6498 5.04939 11.5306 5 11.4062 5H7.03125ZM2.65625 8.125C2.28329 8.125 1.9256 8.27316 1.66188 8.53688C1.39816 8.8006 1.25 9.15829 1.25 9.53125V11.0938C1.25 11.2784 1.28637 11.4613 1.35704 11.6319C1.42772 11.8025 1.5313 11.9575 1.66188 12.0881C1.79246 12.2187 1.94749 12.3223 2.1181 12.393C2.28872 12.4636 2.47158 12.5 2.65625 12.5H4.21875C4.40342 12.5 4.58628 12.4636 4.7569 12.393C4.92751 12.3223 5.08254 12.2187 5.21312 12.0881C5.3437 11.9575 5.44728 11.8025 5.51796 11.6319C5.58863 11.4613 5.625 11.2784 5.625 11.0938V9.53125C5.625 9.15829 5.47684 8.8006 5.21312 8.53688C4.9494 8.27316 4.59171 8.125 4.21875 8.125H2.65625ZM2.1875 9.53125C2.1875 9.40693 2.23689 9.2877 2.32479 9.19979C2.4127 9.11189 2.53193 9.0625 2.65625 9.0625H4.21875C4.34307 9.0625 4.4623 9.11189 4.55021 9.19979C4.63811 9.2877 4.6875 9.40693 4.6875 9.53125V11.0938C4.6875 11.2181 4.63811 11.3373 4.55021 11.4252C4.4623 11.5131 4.34307 11.5625 4.21875 11.5625H2.65625C2.53193 11.5625 2.4127 11.5131 2.32479 11.4252C2.23689 11.3373 2.1875 11.2181 2.1875 11.0938V9.53125ZM7.03125 8.75C6.90693 8.75 6.7877 8.79939 6.69979 8.88729C6.61189 8.9752 6.5625 9.09443 6.5625 9.21875C6.5625 9.34307 6.61189 9.4623 6.69979 9.55021C6.7877 9.63811 6.90693 9.6875 7.03125 9.6875H13.2812C13.4056 9.6875 13.5248 9.63811 13.6127 9.55021C13.7006 9.4623 13.75 9.34307 13.75 9.21875C13.75 9.09443 13.7006 8.9752 13.6127 8.88729C13.5248 8.79939 13.4056 8.75 13.2812 8.75H7.03125ZM7.03125 10.625C6.90693 10.625 6.7877 10.6744 6.69979 10.7623C6.61189 10.8502 6.5625 10.9694 6.5625 11.0938C6.5625 11.2181 6.61189 11.3373 6.69979 11.4252C6.7877 11.5131 6.90693 11.5625 7.03125 11.5625H11.4062C11.5306 11.5625 11.6498 11.5131 11.7377 11.4252C11.8256 11.3373 11.875 11.2181 11.875 11.0938C11.875 10.9694 11.8256 10.8502 11.7377 10.7623C11.6498 10.6744 11.5306 10.625 11.4062 10.625H7.03125Z" fill="#212121"/>
</g>
</svg>
