<svg width="15" height="15" viewBox="0 0 15 15" fill="none" xmlns="http://www.w3.org/2000/svg">
<g id="Group">
<g id="Group_2">
<path id="Vector" d="M3.76116 3.10411C4.61834 3.10411 5.31322 2.40923 5.31322 1.55206C5.31322 0.69488 4.61834 0 3.76116 0C2.90399 0 2.20911 0.69488 2.20911 1.55206C2.20911 2.40923 2.90399 3.10411 3.76116 3.10411Z" fill="#212121"/>
<path id="Vector_2" d="M14.1033 8.29325C14.0404 8.21265 13.9438 8.16559 13.8417 8.16559H9.85969C9.67627 8.16559 9.52761 8.31437 9.52761 8.49791C9.52761 8.68145 9.67627 8.83012 9.85969 8.83012H13.4168L13.1994 9.7069H9.62583C9.44229 9.7069 9.29327 9.85557 9.29327 10.0392C9.29327 10.2228 9.44217 10.3716 9.62583 10.3716H13.0345L12.8173 11.2469H8.7546L8.03733 7.2141C8.01803 7.10562 7.94683 7.01826 7.85223 6.97337C7.97857 6.88709 8.07366 6.75471 8.10515 6.59253C8.16874 6.26588 7.9554 5.94948 7.62862 5.88601C7.03239 5.77005 6.54766 5.22196 6.0347 4.64166C5.65603 4.2134 5.26446 3.77066 4.79385 3.4819C4.76766 3.46585 4.74027 3.45427 4.71276 3.4428C4.53984 3.32756 4.34592 3.24261 4.1479 3.1941L3.76115 3.58339L3.38635 3.18988C3.38502 3.19024 3.38382 3.19024 3.38261 3.1906C3.18338 3.23827 2.98766 3.3231 2.81341 3.4387C2.80895 3.44063 2.80436 3.44196 2.79965 3.44401C0.614684 4.40479 0.825856 8.09077 0.835872 8.24728C0.856265 8.56621 1.1215 8.81105 1.43669 8.81105C1.44948 8.81105 1.46263 8.81069 1.47566 8.80996C1.80775 8.7886 2.05995 8.50201 2.03847 8.17005C2.01506 7.80623 2.02942 7.10043 2.17229 6.40018V7.96974C2.17229 8.13192 2.20379 8.28312 2.25893 8.42213C2.25483 8.4535 2.25181 8.485 2.25181 8.51758L2.2523 14.2878C2.2523 14.6812 2.57111 14.9998 2.96425 14.9998C3.35787 14.9997 3.67656 14.6808 3.67656 14.2878L3.67608 9.3356C3.70444 9.33705 3.73267 9.33934 3.76079 9.33934C3.76634 9.33934 3.77189 9.33862 3.77768 9.33862L3.77744 14.2878C3.77744 14.6809 4.09625 14.9998 4.4894 14.9998C4.88278 14.9998 5.20171 14.6808 5.20171 14.2878V8.55269C5.29499 8.37965 5.34941 8.18405 5.34941 7.96962V5.68509C5.82195 6.20916 6.35857 6.73866 7.06811 6.98024C6.96325 7.03611 6.89097 7.14532 6.89097 7.27251C6.89097 7.45605 7.03964 7.60471 7.22317 7.60471H7.43145L8.14823 11.6344L8.42203 13.2997C8.43458 13.377 8.47392 13.4438 8.52882 13.4932C8.30631 13.595 8.15137 13.8193 8.15137 14.08C8.15137 14.4368 8.44049 14.726 8.79743 14.726C9.15389 14.726 9.44338 14.4369 9.44338 14.08C9.44338 13.8774 9.34986 13.6965 9.20397 13.5782H12.2633C12.1174 13.6965 12.0238 13.8774 12.0238 14.08C12.0238 14.4368 12.3129 14.726 12.6699 14.726C13.0264 14.726 13.3158 14.4369 13.3158 14.08C13.3158 13.8324 13.1763 13.6178 12.9718 13.5092C13.0513 13.4486 13.1034 13.3537 13.1034 13.2459C13.1034 13.0624 12.9549 12.9136 12.771 12.9136H9.0325L8.86766 11.912H13.0774C13.2301 11.912 13.3632 11.808 13.4001 11.6597L14.1644 8.57804C14.1887 8.47872 14.1663 8.37386 14.1033 8.29325ZM3.75753 6.6554L3.38334 6.14316L3.75753 3.64107H3.76489L4.13933 6.14316L3.76489 6.6554H3.75753Z" fill="#212121"/>
</g>
</g>
</svg>
